<?xml version="1.0" encoding="UTF-8" ?>
<!DOCTYPE svg PUBLIC "-//W3C//DTD SVG 1.1//EN" "http://www.w3.org/Graphics/SVG/1.1/DTD/svg11.dtd">
<svg width="1298pt" height="770pt" viewBox="0 0 1298 770" version="1.1" xmlns="http://www.w3.org/2000/svg">
<path fill="#ffffff" d=" M 0.00 0.00 L 1298.00 0.00 L 1298.00 770.00 L 0.00 770.00 L 0.00 0.00 Z" />
<path fill="#8e6b4b" d=" M 734.14 64.13 C 737.36 62.16 741.16 60.00 745.06 61.15 C 748.31 62.74 749.83 66.49 749.77 69.96 C 749.72 74.49 750.27 79.48 747.74 83.50 C 739.33 98.02 731.11 112.66 722.59 127.12 C 738.07 154.50 753.94 181.67 769.49 209.02 C 765.14 216.60 760.64 224.10 756.45 231.78 C 754.21 231.70 753.23 229.53 751.90 228.10 C 734.28 207.92 716.75 187.66 699.26 167.38 C 691.04 179.14 683.05 191.07 674.91 202.89 C 673.78 204.11 674.27 205.81 674.78 207.19 C 677.34 214.11 679.81 221.06 682.33 228.00 C 679.35 233.19 676.74 238.58 673.62 243.67 C 673.32 243.65 672.73 243.62 672.43 243.60 C 669.24 240.07 666.46 236.18 663.54 232.42 C 662.90 231.62 662.25 230.85 661.60 230.08 C 658.93 227.08 656.34 224.02 653.93 220.81 C 642.91 218.12 631.73 216.00 620.80 212.97 C 623.47 207.42 628.05 203.07 631.06 197.71 L 631.56 197.64 C 639.08 196.53 646.74 196.61 654.23 195.29 C 657.14 190.72 659.39 185.77 662.04 181.05 C 666.36 172.58 671.22 164.38 675.25 155.78 C 650.85 151.28 626.49 146.52 602.12 141.83 C 597.93 140.97 593.66 140.42 589.55 139.20 C 593.99 131.41 598.86 123.84 603.92 116.43 C 619.62 116.51 635.31 116.73 651.01 116.73 C 667.29 117.56 683.62 117.34 699.93 117.35 C 703.45 110.76 707.29 104.34 710.83 97.76 L 709.12 97.54 C 709.60 97.53 710.56 97.51 711.04 97.50 C 715.60 89.27 720.29 81.12 724.78 72.85 C 726.82 68.99 730.60 66.50 734.14 64.13 Z" />
<path fill="#ff861b" d=" M 725.61 74.65 C 728.09 69.05 733.72 65.78 739.05 63.31 C 741.99 61.79 746.61 62.07 747.42 65.94 C 748.65 71.28 748.61 77.26 746.50 82.38 C 738.73 95.95 730.93 109.50 723.06 123.02 C 722.10 124.92 720.26 127.13 721.79 129.25 C 737.05 155.87 752.48 182.40 767.82 208.98 C 763.59 215.93 759.83 223.18 755.39 230.00 C 736.90 208.43 718.00 187.20 699.53 165.62 C 698.44 166.47 697.39 167.39 696.68 168.59 C 688.75 180.52 680.36 192.15 672.42 204.05 C 674.36 212.21 678.12 219.93 680.66 227.96 C 677.98 232.61 675.66 237.46 672.75 241.98 C 667.31 234.85 661.56 227.96 655.92 220.99 C 654.79 219.39 652.95 218.63 651.10 218.25 C 641.74 216.11 632.38 213.96 623.03 211.81 C 626.02 207.49 629.21 203.32 632.18 198.99 C 639.46 198.01 646.81 197.75 654.10 196.86 C 655.67 196.84 656.26 195.11 657.00 194.02 C 661.59 185.25 666.39 176.59 670.83 167.74 C 672.94 163.41 675.75 159.44 677.43 154.91 C 664.77 151.77 651.83 149.83 639.05 147.22 C 623.37 144.04 607.60 141.32 591.95 138.00 C 595.85 131.29 600.13 124.82 604.23 118.24 C 635.85 118.41 667.47 119.15 699.09 119.13 C 700.83 119.32 701.40 117.30 702.23 116.18 C 709.96 102.30 717.91 88.55 725.61 74.65 Z" />
<path fill="#b2b0ad" d=" M 352.40 191.76 C 360.93 192.83 369.51 191.65 378.06 192.28 C 390.04 192.29 402.03 192.31 414.01 192.34 C 418.48 192.25 423.03 192.80 427.42 191.73 C 433.65 192.75 440.14 192.70 446.38 191.77 C 450.82 192.93 455.44 192.16 459.97 192.34 C 466.45 192.50 472.94 192.14 479.41 192.73 C 472.73 192.94 466.06 192.81 459.38 192.92 C 397.93 192.89 336.48 192.85 275.03 192.71 C 268.80 192.49 262.79 194.33 257.00 196.43 C 258.31 194.66 260.61 194.31 262.55 193.64 C 273.15 190.60 284.25 192.13 295.09 191.69 C 305.41 191.99 315.73 191.51 326.04 191.98 C 334.83 191.36 343.63 192.89 352.40 191.76 Z" />
<path fill="#8a694c" d=" M 479.41 192.73 C 493.48 193.70 506.68 201.90 514.13 213.83 C 515.58 216.60 517.75 219.33 518.00 222.48 L 517.68 224.25 C 513.61 213.10 505.53 203.27 494.56 198.39 C 483.61 192.99 471.10 194.45 459.31 194.15 L 459.38 192.92 C 466.06 192.81 472.73 192.94 479.41 192.73 Z" />
<path fill="#683f1a" d=" M 257.00 196.43 C 262.79 194.33 268.80 192.49 275.03 192.71 C 336.48 192.85 397.93 192.89 459.38 192.92 L 459.31 194.15 C 398.20 193.86 337.10 194.15 275.99 193.81 C 260.38 193.40 245.11 202.12 237.39 215.67 L 237.45 214.27 C 237.33 212.93 238.40 211.95 239.07 210.93 C 243.81 204.80 249.89 199.57 257.00 196.43 Z" />
<path fill="#ff861b" d=" M 237.39 215.67 C 245.11 202.12 260.38 193.40 275.99 193.81 C 337.10 194.15 398.20 193.86 459.31 194.15 C 471.10 194.45 483.61 192.99 494.56 198.39 C 505.53 203.27 513.61 213.10 517.68 224.25 C 519.08 229.71 519.81 235.33 519.69 240.97 C 519.66 281.64 519.68 322.32 519.68 363.00 C 519.71 364.27 519.42 365.57 518.48 366.50 C 511.12 374.98 503.82 383.52 496.54 392.08 C 494.78 393.77 493.06 395.50 491.30 397.18 C 491.30 366.13 491.27 335.08 491.31 304.03 C 491.10 300.98 492.00 297.57 490.41 294.80 C 489.28 294.57 488.15 294.42 487.01 294.36 C 413.02 294.19 339.02 293.85 265.04 293.97 C 263.80 294.05 262.58 294.23 261.38 294.51 C 260.44 300.99 261.23 307.59 260.97 314.12 C 260.71 347.74 261.40 381.35 261.39 414.97 C 261.50 422.75 261.21 430.54 261.70 438.31 C 262.06 495.86 261.91 553.41 262.14 610.96 C 262.43 618.72 261.54 626.56 262.60 634.26 L 263.19 634.99 C 321.13 635.16 379.07 635.01 437.01 635.06 C 453.89 634.96 470.77 635.28 487.64 634.90 C 488.96 633.98 490.28 632.85 492.01 633.05 C 500.62 632.97 509.23 633.13 517.83 632.99 C 518.00 642.54 517.05 652.21 518.21 661.69 C 518.70 663.75 519.03 665.86 519.02 668.01 C 518.96 681.36 519.01 694.71 518.99 708.07 C 518.91 715.39 519.62 722.92 517.13 729.96 C 512.43 746.26 497.24 758.59 480.44 760.33 C 450.61 760.60 420.80 760.02 390.97 759.99 C 368.48 760.02 345.99 759.87 323.49 760.07 C 306.66 759.87 289.82 760.09 272.99 759.97 C 256.47 759.45 240.72 748.59 234.75 733.11 C 232.44 727.71 231.72 721.81 231.63 715.99 C 231.67 565.00 231.64 414.01 231.64 263.03 C 231.78 258.95 230.82 254.51 233.10 250.84 C 232.63 243.23 231.71 235.50 233.08 227.93 C 233.80 223.62 235.70 219.66 237.39 215.67 Z" />
<path fill="#b1aaa5" d=" M 637.92 196.30 C 643.34 195.80 648.76 195.06 654.23 195.29 C 646.74 196.61 639.08 196.53 631.56 197.64 C 633.29 196.02 635.78 196.58 637.92 196.30 Z" />
<path fill="#865d38" d=" M 236.71 214.50 L 237.45 214.27 L 237.39 215.67 C 235.70 219.66 233.80 223.62 233.08 227.93 C 231.71 235.50 232.63 243.23 233.10 250.84 C 230.82 254.51 231.78 258.95 231.64 263.03 C 231.64 414.01 231.67 565.00 231.63 715.99 C 231.72 721.81 232.44 727.71 234.75 733.11 L 233.43 734.15 C 231.24 728.37 229.83 722.25 229.94 716.04 C 229.92 562.02 229.96 408.00 229.92 253.98 C 230.16 250.96 231.74 248.12 230.99 245.02 C 229.61 234.59 230.99 223.50 236.71 214.50 Z" />
<path fill="#544334" d=" M 518.00 222.48 C 520.30 227.26 520.78 232.71 521.01 237.93 C 521.02 280.31 521.05 322.70 521.00 365.08 C 514.26 373.28 507.13 381.16 500.33 389.32 C 499.61 390.07 499.04 391.08 498.06 391.51 L 496.54 392.08 C 503.82 383.52 511.12 374.98 518.48 366.50 C 519.42 365.57 519.71 364.27 519.68 363.00 C 519.68 322.32 519.66 281.64 519.69 240.97 C 519.81 235.33 519.08 229.71 517.68 224.25 L 518.00 222.48 Z" />
<path fill="#76502e" d=" M 338.01 238.26 C 330.96 237.67 330.92 225.09 338.08 224.59 C 362.72 224.49 387.37 224.55 412.02 224.56 C 415.75 224.38 418.15 228.69 417.75 232.05 C 417.87 234.69 415.74 236.48 414.11 238.23 C 388.74 238.38 363.37 238.33 338.01 238.26 Z" />
<path fill="#ffc38d" d=" M 336.36 226.47 C 361.87 226.23 387.42 226.42 412.94 226.38 C 415.50 225.99 416.15 229.15 416.20 231.07 C 416.43 233.26 415.75 236.62 413.01 236.69 C 388.34 236.81 363.66 236.68 338.99 236.75 C 333.36 237.80 332.63 228.97 336.36 226.47 Z" />
<path fill="#ffc38d" d=" M 661.60 230.08 C 662.25 230.85 662.90 231.62 663.54 232.42 C 663.17 232.55 662.43 232.80 662.06 232.93 C 658.35 244.41 653.65 255.55 650.16 267.11 C 635.33 311.82 623.61 357.48 610.67 402.76 C 599.55 442.38 586.81 481.57 571.80 519.89 C 569.89 525.40 567.23 530.60 565.08 536.02 C 553.87 563.74 541.21 590.86 527.40 617.38 C 525.28 621.95 522.38 626.17 520.70 630.94 C 511.15 631.39 501.57 631.42 492.02 631.02 C 490.56 630.66 489.23 631.33 488.05 632.08 C 486.49 632.89 484.79 633.44 483.01 633.34 C 476.61 633.35 470.21 633.23 463.81 633.35 C 467.96 626.76 473.17 620.93 477.66 614.58 C 500.46 582.15 521.83 548.65 540.80 513.81 C 555.67 486.62 568.75 458.50 581.04 430.07 C 600.83 384.36 617.17 337.29 634.56 290.64 C 636.54 284.10 640.12 278.25 642.88 272.04 C 646.38 264.22 650.29 256.58 653.72 248.72 C 653.38 248.43 652.72 247.84 652.39 247.54 C 655.09 247.50 655.53 244.35 656.62 242.48 C 658.24 238.33 661.08 234.60 661.60 230.08 Z" />
<path fill="#ffc38d" d=" M 632.75 246.10 C 632.00 248.38 630.46 250.27 629.17 252.26 C 608.15 283.95 587.93 316.17 566.58 347.64 C 543.83 381.38 519.59 414.16 493.01 444.99 C 447.49 498.01 394.79 544.72 337.20 584.27 C 320.36 595.96 303.10 607.02 285.56 617.62 C 278.25 622.16 270.69 626.27 263.50 631.01 L 263.48 630.64 C 263.43 618.20 263.53 605.77 263.42 593.34 C 324.99 561.02 382.31 520.58 433.16 473.13 C 461.40 447.02 487.84 418.98 512.55 389.52 C 537.06 360.98 560.71 331.72 584.94 302.96 C 595.21 290.63 606.33 279.01 616.17 266.33 C 622.05 259.89 627.07 252.71 632.75 246.10 Z" />
<path fill="#ffc38d" d=" M 626.86 270.96 C 629.04 267.37 630.53 263.38 632.93 259.92 C 635.05 259.88 637.04 260.78 639.06 261.32 C 638.73 262.56 638.46 263.84 637.95 265.03 C 620.49 302.81 604.07 341.08 585.36 378.27 C 576.84 395.51 567.64 412.42 558.17 429.16 C 540.76 460.32 520.85 490.01 499.87 518.86 C 472.49 556.03 442.74 591.51 410.13 624.22 C 407.20 627.22 403.94 629.95 401.48 633.38 C 392.19 633.22 382.90 633.38 373.62 633.26 C 380.43 626.60 388.57 621.47 395.43 614.89 C 394.77 611.59 391.37 609.60 389.19 607.24 C 380.82 614.58 372.07 621.45 363.39 628.41 C 361.56 629.86 359.90 631.51 358.33 633.23 L 357.99 633.24 C 350.19 633.11 342.38 633.15 334.58 633.06 C 336.27 631.21 338.25 629.67 340.30 628.25 C 372.92 604.32 403.14 577.28 432.12 549.10 C 484.67 497.65 530.12 439.09 567.94 376.05 C 588.62 341.61 607.83 306.33 626.86 270.96 Z" />
<path fill="#ac5c16" d=" M 261.38 294.51 C 262.58 294.23 263.80 294.05 265.04 293.97 C 339.02 293.85 413.02 294.19 487.01 294.36 C 488.15 294.42 489.28 294.57 490.41 294.80 L 489.46 295.06 C 452.66 295.88 415.84 294.70 379.03 294.93 C 346.35 294.93 313.67 294.85 280.99 294.84 C 274.87 294.79 268.74 295.05 262.64 294.58 L 261.38 294.51 Z" />
<path fill="#5d3e23" d=" M 260.97 314.12 C 261.23 307.59 260.44 300.99 261.38 294.51 L 262.64 294.58 L 262.34 295.85 C 262.23 301.97 262.19 308.09 262.05 314.22 L 260.97 314.12 Z" />
<path fill="#7a6b5d" d=" M 262.64 294.58 C 268.74 295.05 274.87 294.79 280.99 294.84 C 313.67 294.85 346.35 294.93 379.03 294.93 C 415.84 294.70 452.66 295.88 489.46 295.06 L 488.82 295.56 C 487.63 296.99 485.61 296.33 484.02 296.51 C 410.13 296.19 336.23 296.36 262.34 295.85 L 262.64 294.58 Z" />
<path fill="#875930" d=" M 489.46 295.06 L 490.41 294.80 C 492.00 297.57 491.10 300.98 491.31 304.03 C 491.27 335.08 491.30 366.13 491.30 397.18 C 493.06 395.50 494.78 393.77 496.54 392.08 L 498.06 391.51 C 495.71 395.01 493.02 398.34 489.77 401.02 C 489.90 370.03 489.82 339.03 489.84 308.03 C 489.41 303.92 490.96 299.32 488.82 295.56 L 489.46 295.06 Z" />
<path fill="#969696" d=" M 262.05 314.22 C 262.19 308.09 262.23 301.97 262.34 295.85 C 263.30 317.22 262.84 338.65 263.04 360.05 C 262.88 361.44 263.37 363.12 262.66 364.36 L 261.95 365.14 C 262.58 348.18 261.66 331.19 262.05 314.22 Z" />
<path fill="#9c9c9c" d=" M 488.82 295.56 C 490.96 299.32 489.41 303.92 489.84 308.03 C 489.82 339.03 489.90 370.03 489.77 401.02 C 488.74 398.44 489.14 395.63 489.12 392.94 C 489.14 366.64 489.10 340.34 489.12 314.04 C 489.05 307.88 489.32 301.71 488.82 295.56 Z" />
<path fill="#944f12" d=" M 260.97 314.12 L 262.05 314.22 C 261.66 331.19 262.58 348.18 261.95 365.14 C 261.12 389.51 262.42 413.93 261.70 438.31 C 261.21 430.54 261.50 422.75 261.39 414.97 C 261.40 381.35 260.71 347.74 260.97 314.12 Z" />
<path fill="#ff861b" d=" M 588.35 343.06 C 591.21 344.67 595.31 345.27 597.19 347.94 C 594.71 354.00 592.06 360.04 588.88 365.78 C 585.99 364.36 583.10 362.96 580.25 361.46 C 582.99 355.34 585.75 349.24 588.35 343.06 Z" />
<path fill="#413427" d=" M 261.95 365.14 L 262.66 364.36 C 263.16 440.69 262.90 517.02 263.42 593.34 C 263.53 605.77 263.43 618.20 263.48 630.64 C 263.26 631.54 262.82 633.35 262.60 634.26 C 261.54 626.56 262.43 618.72 262.14 610.96 C 261.91 553.41 262.06 495.86 261.70 438.31 C 262.42 413.93 261.12 389.51 261.95 365.14 Z" />
<path fill="#ff861b" d=" M 555.78 408.83 C 556.95 406.54 558.26 404.32 559.82 402.27 C 562.50 403.74 565.16 405.24 567.77 406.84 C 561.16 419.90 553.29 432.27 545.70 444.77 C 543.15 442.94 539.06 442.04 537.76 439.21 C 543.52 428.95 550.07 419.13 555.78 408.83 Z" />
<path fill="#ff861b" d=" M 484.42 511.86 C 493.36 500.55 502.24 489.18 511.09 477.81 C 513.70 478.33 515.69 480.61 517.96 481.99 C 519.20 482.55 518.67 484.10 517.92 484.83 C 509.52 495.97 500.97 507.01 491.92 517.63 C 489.31 515.84 486.82 513.90 484.42 511.86 Z" />
<path fill="#ff861b" d=" M 435.65 564.66 C 442.23 558.48 448.05 551.51 454.92 545.65 C 457.15 547.79 459.35 549.98 461.57 552.15 C 458.41 556.41 454.22 559.74 450.59 563.58 C 443.67 570.15 437.40 577.45 430.09 583.58 C 428.14 581.17 426.00 578.86 423.42 577.12 C 426.88 572.40 431.54 568.77 435.65 564.66 Z" />
<path fill="#ff861b" d=" M 718.49 559.81 C 725.21 556.13 734.86 562.22 733.63 570.03 C 733.90 578.71 721.73 583.15 715.89 577.05 C 710.39 572.41 712.01 562.72 718.49 559.81 Z" />
<path fill="#ff861b" d=" M 838.12 560.80 C 843.95 560.12 849.94 560.57 855.82 560.63 C 855.71 570.96 855.72 581.29 855.82 591.61 C 859.46 588.73 863.27 585.80 867.89 584.72 C 876.40 582.96 885.93 584.33 892.53 590.37 C 907.75 602.54 908.17 627.96 894.55 641.48 C 888.13 648.25 878.25 652.27 868.98 649.78 C 863.79 648.76 859.88 645.03 855.98 641.74 C 855.75 644.30 855.69 646.88 855.69 649.46 C 849.88 649.40 844.08 649.35 838.28 649.49 C 837.40 646.39 837.76 643.16 837.74 639.99 C 837.72 615.98 837.75 591.97 837.72 567.97 C 837.80 565.58 837.39 563.10 838.12 560.80 Z" />
<path fill="#ff861b" d=" M 577.61 581.46 C 578.31 576.15 576.72 570.54 578.52 565.45 C 600.15 565.66 621.79 565.65 643.42 565.45 C 645.25 570.38 643.99 575.90 644.27 581.08 C 643.96 581.33 643.34 581.83 643.03 582.08 C 635.50 582.40 627.95 582.00 620.41 582.25 C 620.52 604.63 620.46 627.00 620.45 649.38 C 614.18 649.44 607.92 649.41 601.66 649.40 C 601.60 627.00 601.62 604.61 601.65 582.21 C 595.09 582.15 588.53 582.18 581.98 582.21 C 580.46 582.29 579.02 581.90 577.61 581.46 Z" />
<path fill="#ffd4ae" d=" M 422.64 576.59 L 423.42 577.12 C 426.00 578.86 428.14 581.17 430.09 583.58 C 430.04 583.96 429.94 584.70 429.89 585.08 C 427.22 582.51 423.85 580.25 422.64 576.59 Z" />
<path fill="#ff861b" d=" M 678.39 593.02 C 683.78 588.37 690.18 583.73 697.67 584.11 C 697.77 589.68 697.76 595.25 697.78 600.82 C 693.54 600.83 688.92 600.77 685.39 603.48 C 680.40 607.32 678.62 613.91 678.45 619.95 C 678.30 629.76 678.44 639.57 678.38 649.38 C 672.44 649.45 666.50 649.38 660.57 649.42 C 660.28 628.03 660.59 606.63 660.42 585.24 C 666.43 585.14 672.44 585.06 678.46 585.29 C 678.39 587.86 678.37 590.44 678.39 593.02 Z" />
<path fill="#ff861b" d=" M 771.64 591.77 C 776.09 588.24 781.04 584.79 786.87 584.26 C 791.37 584.02 796.12 583.77 800.36 585.62 C 810.33 589.75 817.83 599.37 819.48 610.04 C 819.89 616.33 820.30 622.88 818.23 628.95 C 815.98 635.96 811.18 642.05 805.07 646.11 C 797.48 651.11 787.12 652.00 779.08 647.56 C 776.24 646.18 774.34 643.50 771.59 642.03 C 771.61 652.20 771.62 662.36 771.59 672.53 C 765.58 672.42 759.57 672.68 753.57 672.36 C 753.55 643.38 753.75 614.40 753.47 585.43 C 759.51 584.88 765.58 585.23 771.63 585.21 C 771.61 587.40 771.61 589.58 771.64 591.77 Z" />
<path fill="#ff861b" d=" M 944.44 584.62 C 951.52 583.81 959.06 583.49 965.76 586.35 C 973.35 589.39 979.65 595.39 983.27 602.71 C 986.81 609.54 985.99 617.56 985.52 624.96 C 982.53 639.72 967.93 650.74 953.01 650.43 C 942.91 650.88 932.65 646.64 926.06 638.93 C 920.78 632.94 917.72 624.98 918.30 616.97 C 917.52 601.67 929.62 587.49 944.44 584.62 Z" />
<path fill="#ff861b" d=" M 1026.48 584.69 C 1034.54 583.64 1043.31 583.47 1050.67 587.48 C 1059.30 592.01 1066.21 600.30 1068.12 609.98 C 1069.75 619.36 1068.34 629.64 1062.23 637.25 C 1052.01 651.23 1030.92 654.33 1016.37 645.57 C 1008.50 641.00 1002.84 632.87 1001.04 623.98 C 999.12 613.81 1001.71 602.59 1008.92 594.97 C 1013.50 589.80 1019.73 586.15 1026.48 584.69 Z" />
<path fill="#ff861b" d=" M 1104.35 591.99 C 1108.15 588.41 1112.49 584.76 1117.92 584.25 C 1121.50 584.03 1125.31 583.79 1128.65 585.37 C 1133.51 587.45 1137.11 591.55 1139.96 595.89 C 1148.29 582.98 1168.45 579.79 1180.02 590.01 C 1185.91 595.19 1188.00 603.42 1187.58 611.02 C 1187.48 623.83 1187.71 636.65 1187.47 649.46 C 1181.52 649.36 1175.57 649.45 1169.63 649.39 C 1169.43 637.25 1169.62 625.12 1169.54 612.99 C 1169.35 608.98 1168.67 604.46 1165.55 601.63 C 1160.97 598.14 1153.98 599.00 1149.93 602.91 C 1146.52 605.89 1145.47 610.67 1145.54 615.02 C 1145.55 626.47 1145.57 637.93 1145.53 649.39 C 1139.54 649.46 1133.55 649.33 1127.56 649.49 C 1127.11 636.67 1127.75 623.83 1127.23 611.02 C 1126.92 606.77 1125.66 601.34 1121.01 599.97 C 1113.22 597.39 1104.59 604.09 1104.46 612.13 C 1104.15 624.53 1104.42 636.94 1104.33 649.35 C 1098.39 649.49 1092.46 649.35 1086.53 649.44 C 1086.26 628.04 1086.56 606.64 1086.38 585.23 C 1092.37 585.13 1098.37 585.10 1104.37 585.24 C 1104.33 587.48 1104.33 589.74 1104.35 591.99 Z" />
<path fill="#ff861b" d=" M 714.30 585.19 C 720.34 585.30 726.41 584.78 732.43 585.52 C 732.13 606.75 732.39 627.99 732.30 649.23 C 726.37 649.66 720.42 649.22 714.49 649.51 C 714.08 628.08 714.46 606.63 714.30 585.19 Z" />
<path fill="#ffffff" d=" M 784.03 599.27 C 790.61 597.90 797.15 602.28 799.88 608.13 C 801.90 611.75 801.89 616.02 801.67 620.05 C 801.41 626.37 796.75 632.03 791.01 634.34 C 786.40 635.09 780.87 635.34 777.42 631.62 C 767.19 622.96 770.25 602.39 784.03 599.27 Z" />
<path fill="#ffffff" d=" M 867.45 599.45 C 871.88 598.22 876.82 599.73 880.11 602.88 C 888.52 610.43 888.25 626.01 878.64 632.47 C 875.15 635.38 870.24 634.93 866.04 634.37 C 851.45 628.76 852.36 603.77 867.45 599.45 Z" />
<path fill="#ffffff" d=" M 949.46 599.57 C 953.42 599.01 957.71 599.57 961.03 601.96 C 970.74 608.83 970.79 625.50 961.10 632.39 C 957.12 635.49 951.72 634.92 947.05 634.33 C 936.77 630.65 933.78 617.19 938.28 608.06 C 940.37 603.66 944.58 600.24 949.46 599.57 Z" />
<path fill="#ffffff" d=" M 1031.41 599.65 C 1035.64 598.92 1040.30 599.55 1043.79 602.22 C 1053.27 609.41 1052.93 626.21 1042.92 632.80 C 1039.05 635.56 1033.93 634.81 1029.51 634.36 C 1020.06 631.08 1016.55 619.34 1019.65 610.46 C 1021.37 605.19 1025.80 600.58 1031.41 599.65 Z" />
<path fill="#ff861b" d=" M 363.39 628.41 C 372.07 621.45 380.82 614.58 389.19 607.24 C 391.37 609.60 394.77 611.59 395.43 614.89 C 388.57 621.47 380.43 626.60 373.62 633.26 C 368.52 633.28 363.42 633.21 358.33 633.23 C 359.90 631.51 361.56 629.86 363.39 628.41 Z" />
<path fill="#9c9289" d=" M 263.48 630.64 L 263.50 631.01 C 263.54 631.53 263.63 632.57 263.67 633.10 C 287.31 633.22 310.95 633.31 334.58 633.06 C 342.38 633.15 350.19 633.11 357.99 633.24 C 336.34 633.85 314.67 633.87 293.00 633.82 C 282.87 634.11 272.70 633.26 262.60 634.26 C 262.82 633.35 263.26 631.54 263.48 630.64 Z" />
<path fill="#7c532f" d=" M 488.05 632.08 C 491.25 630.78 494.64 631.76 497.95 631.41 C 502.32 631.20 506.69 631.41 511.05 631.30 C 513.36 631.34 515.95 630.91 517.92 632.43 L 517.83 632.99 C 509.23 633.13 500.62 632.97 492.01 633.05 C 490.28 632.85 488.96 633.98 487.64 634.90 C 470.77 635.28 453.89 634.96 437.01 635.06 C 379.07 635.01 321.13 635.16 263.19 634.99 L 262.60 634.26 C 272.70 633.26 282.87 634.11 293.00 633.82 C 314.67 633.87 336.34 633.85 357.99 633.24 L 358.33 633.23 C 363.42 633.21 368.52 633.28 373.62 633.26 C 382.90 633.38 392.19 633.22 401.48 633.38 C 422.26 633.44 443.03 633.51 463.81 633.35 C 470.21 633.23 476.61 633.35 483.01 633.34 C 484.79 633.44 486.49 632.89 488.05 632.08 Z" />
<path fill="#3b342c" d=" M 517.92 632.43 C 519.68 632.04 518.82 635.06 519.07 635.98 C 518.94 643.33 519.06 650.69 518.98 658.04 C 518.86 659.67 519.26 661.26 519.97 662.74 C 519.53 662.48 518.65 661.95 518.21 661.69 C 517.05 652.21 518.00 642.54 517.83 632.99 L 517.92 632.43 Z" />
<path fill="#684d36" d=" M 518.21 661.69 C 518.65 661.95 519.53 662.48 519.97 662.74 C 520.58 681.84 520.09 701.00 520.20 720.12 C 519.75 733.64 511.96 746.31 501.00 753.97 C 492.90 759.76 482.83 762.26 472.96 762.13 C 456.71 761.99 440.43 762.28 424.18 761.97 L 423.31 761.17 C 434.20 760.32 445.14 761.06 456.05 760.84 C 464.17 760.64 472.36 761.51 480.44 760.33 C 497.24 758.59 512.43 746.26 517.13 729.96 C 519.62 722.92 518.91 715.39 518.99 708.07 C 519.01 694.71 518.96 681.36 519.02 668.01 C 519.03 665.86 518.70 663.75 518.21 661.69 Z" />
<path fill="#b6b6b6" d=" M 519.97 662.74 L 520.76 662.14 C 520.84 667.93 520.01 673.84 521.30 679.55 C 520.17 685.71 520.27 692.20 521.31 698.38 C 519.45 705.51 521.80 712.98 520.20 720.12 C 520.09 701.00 520.58 681.84 519.97 662.74 Z" />
<path fill="#8a5a2f" d=" M 369.30 677.38 C 384.68 673.84 401.39 687.10 400.78 703.01 C 401.40 717.41 388.14 730.14 373.93 729.78 C 358.97 729.72 346.13 714.73 348.38 699.95 C 349.80 689.08 358.68 679.77 369.30 677.38 Z" />
<path fill="#ffc38d" d=" M 367.42 679.48 C 373.47 677.71 380.19 678.28 385.81 681.18 C 394.49 685.47 399.92 695.38 398.99 705.01 C 398.41 710.65 396.31 716.31 392.35 720.46 C 389.05 723.93 384.51 725.87 379.98 727.16 C 369.65 729.73 357.75 724.77 352.83 715.20 C 349.91 710.29 349.53 704.43 350.14 698.88 C 351.62 689.82 358.57 681.98 367.42 679.48 Z" />
<path fill="#765232" d=" M 234.75 733.11 C 240.72 748.59 256.47 759.45 272.99 759.97 C 289.82 760.09 306.66 759.87 323.49 760.07 L 324.73 760.99 C 307.45 761.61 290.16 760.83 272.88 761.29 C 256.15 761.02 240.60 749.71 233.82 734.64 L 234.75 733.11 Z" />
<path fill="#9d5210" d=" M 323.49 760.07 C 345.99 759.87 368.48 760.02 390.97 759.99 C 420.80 760.02 450.61 760.60 480.44 760.33 C 472.36 761.51 464.17 760.64 456.05 760.84 C 445.14 761.06 434.20 760.32 423.31 761.17 C 399.88 761.58 376.44 761.01 353.01 761.05 C 343.58 760.70 334.14 761.68 324.73 760.99 L 323.49 760.07 Z" />
<path fill="#8d8782" d=" M 272.88 761.29 C 290.16 760.83 307.45 761.61 324.73 760.99 C 334.14 761.68 343.58 760.70 353.01 761.05 C 376.44 761.01 399.88 761.58 423.31 761.17 L 424.18 761.97 C 377.80 762.49 331.40 761.76 285.01 761.64 C 280.97 761.59 276.91 761.82 272.88 761.29 Z" />
</svg>
